<?xml version="1.0" standalone="no"?>
<!DOCTYPE svg PUBLIC "-//W3C//DTD SVG 20010904//EN"
 "http://www.w3.org/TR/2001/REC-SVG-20010904/DTD/svg10.dtd">
<svg version="1.0" xmlns="http://www.w3.org/2000/svg"
 width="800.000000pt" height="800.000000pt" viewBox="0 0 800.000000 800.000000"
 preserveAspectRatio="xMidYMid meet">
<metadata>
Created by potrace 1.14, written by Peter Selinger 2001-2017
</metadata>
<g transform="translate(0.000000,800.000000) scale(0.100000,-0.100000)"
fill="#000000" stroke="none">
<path d="M1496 6493 c-4 -5 -24 -8 -45 -9 -20 0 -42 -4 -49 -8 -7 -4 -12 -4
-12 1 0 10 -131 10 -148 -1 -7 -4 -12 -3 -12 1 0 11 -131 9 -148 -1 -7 -4 -12
-3 -12 2 0 7 -71 7 -125 -1 -39 -5 -82 -36 -109 -77 -15 -23 -23 -39 -17 -36
5 4 4 -6 -4 -21 -18 -34 -19 -53 -2 -53 8 0 7 -4 -3 -10 -8 -5 -10 -10 -5 -10
6 0 3 -5 -5 -10 -8 -5 -10 -10 -4 -10 8 0 10 -32 9 -100 -2 -72 0 -98 9 -93 6
3 3 -3 -7 -14 -9 -11 -14 -23 -10 -27 12 -12 10 -126 -2 -126 -7 0 -7 -3 0 -8
14 -9 14 -215 0 -224 -6 -5 -6 -8 2 -8 8 0 10 -16 7 -51 -3 -38 -1 -49 8 -44
7 4 4 -1 -6 -9 -11 -9 -15 -16 -8 -16 6 0 9 -7 5 -16 -3 -9 0 -20 8 -25 9 -6
10 -9 2 -9 -7 0 -10 -9 -8 -21 2 -12 0 -29 -5 -39 -5 -10 -6 -21 -2 -25 11
-11 9 -209 -3 -217 -6 -5 -6 -8 2 -8 9 0 11 -12 7 -41 -5 -33 -3 -40 7 -33 12
6 12 5 0 -9 -7 -9 -10 -17 -5 -17 5 0 2 -5 -6 -10 -8 -5 -10 -10 -4 -10 12 0
13 -88 2 -106 -4 -6 -4 -14 -1 -18 10 -10 10 -246 1 -252 -5 -3 -5 -11 -1 -17
10 -16 11 -297 1 -303 -5 -3 -4 -13 0 -22 10 -21 9 -263 -1 -279 -4 -6 -3 -14
2 -18 8 -5 8 -32 0 -82 -1 -4 0 -10 1 -13 7 -16 5 -107 -3 -117 -5 -8 -6 -13
0 -13 10 0 11 -220 0 -237 -4 -6 -4 -14 1 -17 10 -6 9 -126 -1 -143 -4 -6 -3
-14 2 -18 6 -3 8 -24 5 -46 -4 -31 -2 -39 8 -34 7 3 4 -1 -6 -9 -11 -9 -15
-16 -8 -16 6 0 9 -7 5 -16 -3 -9 0 -20 8 -25 9 -6 10 -9 2 -9 -7 0 -10 -9 -8
-21 2 -12 0 -29 -5 -39 -5 -10 -6 -21 -2 -25 11 -11 9 -209 -3 -217 -7 -5 -7
-8 0 -8 12 0 14 -108 2 -127 -4 -6 -3 -14 2 -17 8 -5 8 -57 1 -91 -1 -5 -1
-14 0 -20 8 -32 4 -215 -5 -215 -6 0 -6 -3 0 -8 14 -9 13 -65 0 -74 -7 -5 -7
-8 0 -8 6 0 10 -40 10 -101 -1 -113 -6 -122 -67 -117 -21 2 -38 -1 -38 -6 0
-5 -10 -1 -22 10 -12 10 -18 14 -15 7 12 -19 -130 -22 -150 -3 -10 10 -13 11
-8 2 6 -11 -7 -13 -64 -10 -39 1 -71 -1 -71 -5 0 -5 -5 -5 -10 -2 -6 4 -67 7
-137 8 l-126 2 -4 -28 c-3 -22 2 -29 24 -39 15 -6 33 -10 40 -9 6 1 14 -3 18
-8 3 -6 12 -8 20 -4 8 3 15 1 15 -4 0 -5 6 -10 13 -10 6 0 32 -6 57 -13 25 -7
57 -13 73 -13 15 0 27 -3 27 -7 0 -6 28 -9 85 -11 10 0 26 -5 34 -12 12 -10
13 -9 6 3 -7 12 -6 13 6 4 15 -11 70 -18 152 -18 26 0 47 -3 47 -6 0 -8 44 -5
58 4 7 4 12 2 12 -4 0 -8 6 -8 20 0 14 8 20 8 20 0 0 -7 6 -8 19 0 11 5 22 7
25 2 6 -9 67 -9 83 1 6 4 14 3 18 -3 3 -5 11 -10 16 -10 6 0 7 4 4 10 -4 6 2
7 17 2 21 -7 58 -8 83 -2 6 1 12 1 15 0 14 -6 67 -5 82 2 10 5 19 4 23 -2 3
-5 11 -10 16 -10 6 0 7 4 4 10 -4 6 2 7 18 1 13 -5 30 -5 37 -1 8 5 19 5 26
-1 8 -7 14 -6 19 1 3 6 12 7 18 3 17 -11 60 -11 75 0 7 6 12 6 12 0 0 -5 9 -9
20 -10 11 -1 18 2 15 8 -4 5 3 5 18 0 13 -5 30 -5 37 -1 8 5 19 5 26 -1 8 -7
14 -6 19 1 5 8 10 8 20 0 10 -8 15 -8 20 0 5 8 10 8 20 0 9 -8 15 -8 20 0 3 6
12 7 18 3 17 -11 60 -11 75 0 7 6 12 6 12 0 0 -5 9 -9 20 -10 11 -1 18 2 15 8
-4 5 3 5 18 0 13 -5 30 -5 37 -1 8 5 19 5 26 -1 8 -7 14 -6 19 1 5 8 11 8 21
-1 10 -8 18 -8 27 -1 8 7 18 7 27 2 21 -14 32 -12 24 3 -6 9 -5 9 7 0 12 -10
18 -10 27 -1 7 7 12 8 12 2 0 -5 9 -10 20 -11 11 -1 20 4 20 10 0 8 3 8 8 2
10 -14 65 -14 74 -1 5 7 8 7 8 1 0 -12 70 -15 70 -3 0 5 5 6 11 2 17 -10 109
-12 109 -2 0 5 8 4 18 -1 13 -7 23 -6 30 1 8 8 12 8 12 2 0 -6 7 -11 15 -11 8
0 15 5 15 11 0 7 3 7 8 1 8 -12 142 -14 142 -2 0 4 9 3 19 -3 13 -7 22 -7 26
0 4 7 12 7 25 0 25 -13 33 -13 24 2 -5 7 -3 8 6 3 17 -11 140 -13 140 -2 0 4
5 5 11 1 17 -10 109 -12 109 -2 0 5 5 6 12 2 18 -11 68 -13 68 -2 0 5 5 6 12
2 18 -11 68 -13 68 -2 0 5 5 6 12 2 16 -10 279 -11 285 -1 2 4 9 4 15 0 16 -9
299 -10 305 0 2 4 9 4 15 0 16 -9 219 -10 225 0 2 4 9 4 16 0 15 -9 218 -10
224 0 2 4 9 4 16 0 15 -9 198 -11 218 -1 9 4 19 4 23 1 10 -10 126 -10 126 0
0 4 5 5 10 2 18 -11 90 -13 83 -2 -4 6 -1 7 7 2 17 -11 140 -13 140 -2 0 4 5
5 10 2 18 -11 90 -13 83 -2 -4 6 -1 7 7 2 17 -11 140 -13 140 -2 0 4 5 5 11 1
16 -10 149 -11 149 -2 0 5 9 4 19 -2 13 -7 22 -7 26 0 4 7 12 7 25 0 25 -13
33 -13 24 2 -5 7 -3 8 6 3 17 -11 140 -13 140 -3 0 5 8 4 18 -1 13 -7 23 -6
30 1 7 7 12 8 12 2 0 -5 9 -10 20 -11 13 -1 18 2 14 9 -5 7 -2 8 6 3 18 -11
140 -13 140 -2 0 4 5 5 11 1 16 -10 149 -11 149 -2 0 5 8 4 18 -1 13 -7 23 -6
30 1 9 9 12 9 12 0 0 -14 21 -12 32 3 5 7 8 6 8 0 0 -12 68 -14 85 -3 6 4 17
3 25 -3 20 -12 33 -11 25 1 -4 6 2 7 18 1 13 -5 30 -5 37 -1 8 5 19 5 26 -1 8
-7 14 -6 19 1 3 6 12 7 18 3 17 -11 60 -11 75 0 7 6 12 6 12 0 0 -5 9 -9 20
-10 11 -1 18 2 15 8 -4 5 3 5 18 0 13 -5 30 -5 37 -1 8 5 19 5 26 -1 8 -7 14
-6 19 1 3 6 12 7 18 3 17 -11 60 -11 74 0 8 6 13 6 13 0 0 -5 9 -9 20 -10 11
-1 18 2 15 8 -4 5 3 5 18 0 13 -5 30 -5 37 -1 8 5 19 5 26 -1 8 -7 14 -6 19 1
5 8 10 8 20 0 10 -8 15 -8 20 0 5 8 10 8 20 0 9 -8 15 -8 20 0 3 6 12 7 18 3
17 -11 60 -11 75 0 7 6 12 6 12 0 0 -5 9 -9 20 -10 11 -1 18 2 15 8 -4 5 3 6
17 1 26 -9 68 -8 92 1 9 4 16 2 16 -2 0 -5 11 -8 24 -7 13 0 22 4 19 8 -2 5 0
8 6 8 5 0 11 -6 14 -12 3 -10 7 -10 17 -1 8 8 20 9 36 3 14 -6 26 -6 29 0 4 6
14 6 27 -1 11 -6 18 -7 15 -2 -3 4 29 8 70 9 52 1 78 5 84 15 7 11 9 9 9 -6 0
-12 3 -16 8 -9 4 6 21 10 37 9 17 -1 35 2 40 6 17 12 27 11 36 -3 7 -10 9 -10
9 0 0 6 12 12 28 12 15 0 42 4 60 9 23 7 32 6 32 -2 0 -8 3 -8 8 -2 4 6 12 11
17 12 18 3 99 14 113 15 6 1 12 6 12 11 0 5 6 7 14 4 8 -3 17 -3 20 1 4 3 16
7 27 9 35 5 69 34 69 59 0 22 -14 30 -44 25 -4 -1 -15 4 -24 11 -12 10 -14 10
-8 1 5 -10 -5 -12 -39 -10 -26 2 -45 -2 -45 -8 0 -6 -3 -7 -8 0 -8 12 -112 14
-112 2 0 -5 -5 -5 -10 -2 -13 8 -327 8 -340 0 -5 -3 -11 -1 -14 4 -3 5 -15 7
-26 4 -12 -3 -20 0 -20 6 0 7 -5 9 -10 6 -14 -9 -24 22 -13 38 6 6 7 23 3 37
-4 14 -3 37 1 51 4 15 3 32 -1 39 -5 7 -6 19 -3 26 6 17 9 134 3 134 -3 0 -3
32 0 70 3 39 3 70 0 70 -3 0 -4 24 -3 52 3 76 3 101 3 118 -1 15 -1 127 0 245
1 95 -1 128 -6 136 -2 4 0 10 5 13 5 4 6 18 2 34 -5 15 -5 36 -1 47 4 11 6 23
3 27 -6 12 -8 117 -1 123 3 3 2 24 -2 45 -4 22 -4 43 0 45 4 3 5 20 0 38 -4
18 -4 42 1 53 4 12 4 26 -1 33 -4 7 -4 28 0 47 4 18 5 35 2 38 -3 3 -4 45 -3
93 1 49 2 94 1 101 0 23 0 47 0 95 0 27 -2 53 -5 58 -4 5 -1 9 5 9 6 0 8 4 5
10 -8 13 -10 118 -3 126 4 3 4 12 1 20 -7 20 -9 134 -2 134 4 0 3 15 -1 34 -4
19 -5 39 -1 44 4 6 5 28 3 49 -3 37 -3 75 -3 138 1 17 1 39 1 50 0 11 -1 38
-1 60 0 22 0 58 0 80 0 22 0 45 1 50 1 6 1 15 0 20 -5 23 -2 114 4 124 4 6 4
11 -1 11 -6 0 -9 151 -2 170 1 3 0 10 -1 15 -2 8 -2 43 1 118 0 11 0 148 -1
192 0 11 0 43 0 70 1 28 1 55 1 60 0 12 -1 162 -1 188 0 31 0 127 0 140 1 6
-1 29 -2 50 -2 21 0 41 4 44 5 2 5 9 1 16 -8 14 -9 58 0 80 3 9 3 17 -2 17 -5
0 -5 18 -1 40 4 22 4 40 1 40 -4 0 -6 12 -5 28 2 31 -20 88 -43 114 -9 10 -12
18 -8 18 5 0 0 6 -10 14 -11 8 -23 12 -27 10 -5 -3 -8 -1 -8 4 0 15 -63 28
-125 25 -33 -2 -64 -3 -70 -3 -5 0 -40 1 -78 2 -37 2 -67 -1 -67 -5 0 -5 -6
-5 -12 0 -17 10 -168 10 -168 0 0 -5 -5 -5 -12 -1 -16 10 -128 11 -128 1 0 -5
-5 -5 -12 -1 -16 10 -80 12 -100 2 -9 -4 -19 -4 -22 0 -2 4 -47 6 -98 5 -51
-2 -97 -3 -103 -3 -5 0 -40 1 -77 3 -38 1 -68 -1 -68 -6 0 -4 -5 -5 -12 -1
-18 11 -118 11 -118 -1 0 -7 -3 -7 -8 0 -8 11 -122 14 -122 3 0 -4 -10 -4 -22
0 -29 10 -99 9 -115 -1 -7 -5 -13 -5 -13 0 0 12 -194 10 -202 -2 -5 -7 -8 -6
-8 0 0 7 -33 10 -92 8 -51 -2 -97 -3 -103 -3 -5 0 -36 1 -68 3 -32 1 -61 -1
-63 -5 -3 -5 -13 -4 -22 1 -9 5 -26 5 -39 0 -12 -4 -24 -5 -27 -1 -6 9 -178 8
-194 -2 -7 -4 -12 -3 -12 1 0 5 -28 8 -62 6 -75 -4 -62 -4 -173 0 -49 2 -96
-1 -102 -6 -8 -6 -13 -6 -13 0 0 5 -39 7 -87 6 -49 -2 -92 -3 -98 -3 -5 0 -36
1 -68 3 -32 1 -61 -1 -63 -5 -3 -5 -13 -4 -22 1 -9 5 -26 5 -39 0 -12 -4 -24
-5 -27 -1 -3 5 -125 6 -261 2 -5 0 -36 1 -68 3 -32 1 -61 -1 -63 -5 -3 -5 -10
-6 -15 -2 -17 10 -89 11 -89 2 0 -5 -5 -6 -12 -2 -16 10 -199 11 -205 1 -2 -4
-12 -4 -21 1 -9 4 -46 6 -82 5 -92 -4 -88 -4 -162 0 -38 2 -68 -1 -68 -6 0 -6
-5 -6 -12 -1 -7 5 -29 8 -48 7 -47 -4 -51 -4 -162 0 -54 1 -98 -1 -98 -6 0 -4
-5 -5 -12 -1 -16 10 -88 11 -88 2 0 -4 -10 -4 -22 0 -29 10 -99 9 -115 -1 -7
-5 -13 -5 -13 0 0 10 -172 9 -187 0 -7 -4 -14 -4 -17 1 -2 4 -47 6 -98 5 -51
-2 -97 -3 -103 -3 -5 0 -40 1 -78 2 -37 2 -67 -1 -67 -5 0 -5 -5 -5 -12 -1
-16 10 -80 12 -100 2 -9 -4 -19 -4 -22 0 -4 7 -83 8 -111 2 -24 -6 -56 1 -50
10 7 12 2 13 -9 3z"/>
</g>
</svg>
